<?xml version="1.0" encoding="UTF-8" standalone="no"?>
<!-- Generator: Adobe Illustrator 16.0.0, SVG Export Plug-In . SVG Version: 6.00 Build 0)  -->

<svg
   version="1.1"
   id="Capa_1"
   x="0px"
   y="0px"
   width="980px"
   height="980px"
   viewBox="0 0 980 980"
   style="enable-background:new 0 0 980 980;"
   xml:space="preserve"
   sodipodi:docname="bus.svg"
   inkscape:version="1.1.2 (0a00cf5339, 2022-02-04)"
   xmlns:inkscape="http://www.inkscape.org/namespaces/inkscape"
   xmlns:sodipodi="http://sodipodi.sourceforge.net/DTD/sodipodi-0.dtd"
   xmlns="http://www.w3.org/2000/svg"
   xmlns:svg="http://www.w3.org/2000/svg"><defs
   id="defs49" /><sodipodi:namedview
   id="namedview47"
   pagecolor="#ffffff"
   bordercolor="#666666"
   borderopacity="1.0"
   inkscape:pageshadow="2"
   inkscape:pageopacity="0.0"
   inkscape:pagecheckerboard="0"
   showgrid="false"
   inkscape:zoom="0.43673469"
   inkscape:cx="525.49065"
   inkscape:cy="325.14019"
   inkscape:window-width="1920"
   inkscape:window-height="1032"
   inkscape:window-x="0"
   inkscape:window-y="24"
   inkscape:window-maximized="1"
   inkscape:current-layer="Capa_1" />
<ellipse
   style="fill:#ab6262;stroke:#ffffff;stroke-opacity:1;fill-opacity:1"
   id="path897"
   cx="491.88763"
   cy="492.07758"
   rx="491.50613"
   ry="490.04263" /><g
   id="g873"
   transform="matrix(0.7600092,0,0,0.7520557,123.64193,139.52889)"
   style="fill:#ffffff"><g
     id="g14"
     style="fill:#ffffff">
	<g
   id="g12"
   style="fill:#ffffff">
		<path
   d="m 731.1,924.45 c 0,22.101 17.9,40 40,40 H 841 c 22.1,0 40,-17.899 40,-40 v -49.9 H 731.1 Z"
   id="path2"
   style="fill:#ffffff" />
		<path
   d="m 99,924.45 c 0,22.101 17.9,40 40,40 h 69.9 c 22.1,0 40,-17.899 40,-40 v -49.9 H 99 Z"
   id="path4"
   style="fill:#ffffff" />
		<path
   d="m 64,402.75 v -242.1 c -9.4,-6 -20.5,-10.7 -33.7,-13.6 -15.6,-3.4 -30.3,8.5 -30.3,24.4 v 151.9 c 0,39 27.4,71.5 64,79.4 z"
   id="path6"
   style="fill:#ffffff" />
		<path
   d="m 949.7,147.05 c -13.101,2.9 -24.3,7.6 -33.7,13.6 v 242.1 c 36.6,-7.9 64,-40.4 64,-79.3 v -152 c 0,-15.9 -14.7,-27.8 -30.3,-24.4 z"
   id="path8"
   style="fill:#ffffff" />
		<path
   d="m 881,814.55 v -410 -205.4 -143.6 c 0,-22.1 -17.9,-40 -40,-40 H 139 c -22.1,0 -40,17.9 -40,40 v 143.6 205.4 410 25 H 248.9 731.1 881 Z m -699.2,-66 v -86 c 119.9,0 149.4,86 149.4,86 z m 305.5,-243.3 c -9.399,-9.5 -22.2,-14.801 -35.6,-14.801 h -270 l 1,-391 h 614.4 v 460.8 41.899 h -214 z m 160.6,243.3 c 0,0 29.5,-86 149.399,-86 v 86 z"
   id="path10"
   style="fill:#ffffff" />
	</g>
</g></g>
<g
   id="g16">
</g>
<g
   id="g18">
</g>
<g
   id="g20">
</g>
<g
   id="g22">
</g>
<g
   id="g24">
</g>
<g
   id="g26">
</g>
<g
   id="g28">
</g>
<g
   id="g30">
</g>
<g
   id="g32">
</g>
<g
   id="g34">
</g>
<g
   id="g36">
</g>
<g
   id="g38">
</g>
<g
   id="g40">
</g>
<g
   id="g42">
</g>
<g
   id="g44">
</g>
</svg>
