<?xml version="1.0" encoding="iso-8859-1"?>
<!-- Generator: Adobe Illustrator 19.0.0, SVG Export Plug-In . SVG Version: 6.00 Build 0)  -->
<svg version="1.1" id="Layer_1" xmlns="http://www.w3.org/2000/svg" xmlns:xlink="http://www.w3.org/1999/xlink" x="0px" y="0px"
	 viewBox="0 0 330 330" style="enable-background:new 0 0 330 330;" xml:space="preserve">
<path id="XMLID_340_" d="M315,52.515H15c-8.284,0-15,6.716-15,15v159.97c0,8.284,6.716,15,15,15h37.302
	c6.386,20.264,25.352,35,47.698,35c22.346,0,41.312-14.736,47.699-35h34.604c6.386,20.264,25.352,35,47.698,35
	s41.312-14.736,47.698-35H315c8.284,0,15-6.716,15-15V67.515C330,59.231,323.285,52.515,315,52.515z M300,122.515h-60v-40h60
	V122.515z M170,122.515v-40h40v40H170z M100,122.515v-40h40v40H100z M70,82.515v40H30v-40H70z M100,247.485
	c-11.028,0-20-8.972-20-19.999c0-11.029,8.972-20.001,20-20.001c11.025,0,19.994,8.967,20,19.991c0,0.003-0.001,0.006-0.001,0.009
	c0,0.003,0.001,0.007,0.001,0.01C119.995,238.518,111.025,247.485,100,247.485z M230,247.485c-11.028,0-20-8.972-20-19.999
	c0-11.029,8.972-20.001,20-20.001c11.024,0,19.994,8.967,20,19.991c0,0.003-0.001,0.006-0.001,0.009c0,0.003,0.001,0.007,0.001,0.01
	C249.995,238.518,241.025,247.485,230,247.485z M277.698,212.485c-6.387-20.264-25.352-35-47.698-35s-41.311,14.736-47.698,35
	h-34.604c-6.387-20.264-25.353-35-47.698-35c-22.346,0-41.312,14.736-47.698,35H30v-59.97h270v59.97H277.698z"/>
<g>
</g>
<g>
</g>
<g>
</g>
<g>
</g>
<g>
</g>
<g>
</g>
<g>
</g>
<g>
</g>
<g>
</g>
<g>
</g>
<g>
</g>
<g>
</g>
<g>
</g>
<g>
</g>
<g>
</g>
</svg>
