<?xml version="1.0" encoding="UTF-8" standalone="no"?>
<!-- Generator: Adobe Illustrator 19.0.0, SVG Export Plug-In . SVG Version: 6.00 Build 0)  -->

<svg
   version="1.1"
   id="Layer_1"
   x="0px"
   y="0px"
   viewBox="0 0 298.671 298.671"
   style="enable-background:new 0 0 298.671 298.671;"
   xml:space="preserve"
   sodipodi:docname="busstop.svg"
   inkscape:version="1.1.2 (0a00cf5339, 2022-02-04)"
   xmlns:inkscape="http://www.inkscape.org/namespaces/inkscape"
   xmlns:sodipodi="http://sodipodi.sourceforge.net/DTD/sodipodi-0.dtd"
   xmlns="http://www.w3.org/2000/svg"
   xmlns:svg="http://www.w3.org/2000/svg"><defs
   id="defs52" /><sodipodi:namedview
   id="namedview50"
   pagecolor="#ffffff"
   bordercolor="#666666"
   borderopacity="1.0"
   inkscape:pageshadow="2"
   inkscape:pageopacity="0.0"
   inkscape:pagecheckerboard="0"
   showgrid="false"
   inkscape:zoom="1.0132946"
   inkscape:cx="-21.217916"
   inkscape:cy="207.24476"
   inkscape:window-width="1920"
   inkscape:window-height="1032"
   inkscape:window-x="0"
   inkscape:window-y="24"
   inkscape:window-maximized="1"
   inkscape:current-layer="Layer_1" />
<ellipse
   style="fill:#c6a215;stroke:#ffffff;fill-opacity:1;stroke-opacity:1"
   id="path902"
   cx="149.4823"
   cy="149.71375"
   rx="150.29727"
   ry="148.86311" /><g
   id="g878"
   transform="matrix(0.65533565,0,0,0.66789654,55.681828,47.875388)"
   style="fill:#ffffff"><g
     id="XMLID_1483_"
     style="fill:#ffffff">
	<g
   id="g16"
   style="fill:#ffffff">
		<g
   id="g14"
   style="fill:#ffffff">
			<path
   d="M 293.981,166.005 C 293.796,165.498 275.356,115.048 267.235,91.416 262.84,78.625 255.95,71.115 246.712,69.004 c -6.73,6.482 -15.683,10.199 -25.232,10.199 -9.844,0 -18.782,-3.934 -25.342,-10.304 -8.354,1.534 -13.606,6.269 -18.331,10.543 0,0 -16.697,14.808 -28.748,25.609 -6.102,5.47 -4.581,15.432 2.887,18.825 l 32.676,14.848 2.579,-5.455 c -2.063,-4.356 0.375,-9.493 5.039,-10.661 l 2.105,-4.454 -17.106,-7.773 c 0.001,-0.001 17.517,-15.584 17.517,-15.584 l -1.28,10.468 20.935,9.512 c 11.439,5.198 16.498,18.684 11.301,30.124 -5.197,11.437 -18.682,16.5 -30.124,11.301 l -10.37,-4.712 -8.548,44.134 c -0.356,1.839 0.129,3.74 1.32,5.185 1.191,1.446 2.967,2.289 4.84,2.289 2.405,0 5.297,0 8.52,0 v 81.922 c 0,7.539 6.111,13.65 13.65,13.65 7.539,0 13.65,-6.111 13.65,-13.65 v -81.921 c 1.884,0 3.773,0 5.656,0 v 81.922 c 0,7.539 6.111,13.65 13.65,13.65 7.539,0 13.65,-6.111 13.65,-13.65 v -81.922 c 3.223,0 6.116,0 8.52,0 1.874,0 3.65,-0.838 4.842,-2.284 1.192,-1.446 1.674,-3.35 1.318,-5.19 -17.352,-89.59 -15.453,-79.297 -15.995,-83.728 9.042,25.586 22.166,61.493 22.322,61.921 2.157,5.899 8.686,8.935 14.589,6.778 5.902,-2.159 8.937,-8.691 6.779,-14.591 z"
   id="path2"
   style="fill:#ffffff" />
			<path
   d="m 196.04,137.389 -2.539,5.37 6.794,3.088 c 5.715,2.598 12.461,0.072 15.061,-5.65 2.599,-5.719 0.069,-12.463 -5.65,-15.062 l -6.482,-2.945 -2.191,4.633 c 2.005,4.35 -0.444,9.373 -4.993,10.566 z"
   id="path4"
   style="fill:#ffffff" />
			<circle
   cx="221.48"
   cy="42.797001"
   r="23.407"
   id="circle6"
   style="fill:#ffffff" />
			<path
   d="m 74.042,41.295 c 0,-1.332 -0.727,-1.926 -1.676,-1.926 H 67.41 v 3.887 h 4.742 c 1.442,0 1.89,-0.828 1.89,-1.961 z"
   id="path8"
   style="fill:#ffffff" />
			<path
   d="m 73.15,48.677 h -5.741 v 4.243 h 5.492 c 1.077,0 2.033,-0.671 2.033,-2.068 -10e-4,-1.139 -0.652,-2.175 -1.784,-2.175 z"
   id="path10"
   style="fill:#ffffff" />
			<path
   d="M 134.144,15.963 H 55.472 V 12.901 C 55.472,5.776 49.696,0 42.571,0 35.446,0 29.671,5.776 29.671,12.901 V 272.869 H 16.896 c -7.125,0 -12.901,5.776 -12.901,12.901 0,7.125 5.776,12.901 12.901,12.901 h 51.35 c 7.125,0 12.901,-5.776 12.901,-12.901 0,-7.125 -5.776,-12.901 -12.901,-12.901 H 55.472 V 76.41 h 78.671 c 3.81,0 6.898,-3.088 6.898,-6.898 V 22.861 c 0.001,-3.809 -3.088,-6.898 -6.897,-6.898 z M 72.901,58.769 H 60.455 V 33.45 h 14.692 c 3.432,0 5.777,3.2 5.777,6.49 0,2.258 -1.119,4.713 -3.637,5.849 2.981,0.879 4.707,3.007 4.707,6.49 0,4.72 -4.372,6.49 -9.093,6.49 z m 34.662,-12.303 v 0 c -0.001,7.557 -4.019,12.516 -11.447,12.516 -7.405,0 -11.411,-5.006 -11.411,-12.516 V 33.45 h 6.954 v 13.016 c 0,3.276 1.21,6.347 4.458,6.347 3.243,0 4.493,-3.078 4.493,-6.347 V 33.45 h 6.954 v 13.016 z m 13.3,12.624 c -3.772,0 -8.163,-1.264 -11.019,-2.959 l 2.995,-6.098 c 2.199,1.383 5.365,2.781 8.13,2.781 0.911,0 2.033,-0.133 2.033,-1.106 0,-1.497 -2.684,-1.801 -5.634,-2.817 -4.063,-1.381 -6.419,-3.101 -6.419,-7.096 0,-5.448 4.28,-8.559 9.45,-8.559 3.314,0 6.523,1.264 9.486,2.746 l -2.995,5.741 c -1.784,-1.07 -4.566,-2.318 -6.704,-2.318 -1.021,0 -2.033,0.232 -2.033,1.248 0,1.107 1.518,1.581 2.728,1.926 5.748,1.645 9.611,3.076 9.611,8.451 -10e-4,5.567 -4.151,8.06 -9.629,8.06 z"
   id="path12"
   style="fill:#ffffff" />
		</g>
	</g>
</g></g>
<g
   id="g19">
</g>
<g
   id="g21">
</g>
<g
   id="g23">
</g>
<g
   id="g25">
</g>
<g
   id="g27">
</g>
<g
   id="g29">
</g>
<g
   id="g31">
</g>
<g
   id="g33">
</g>
<g
   id="g35">
</g>
<g
   id="g37">
</g>
<g
   id="g39">
</g>
<g
   id="g41">
</g>
<g
   id="g43">
</g>
<g
   id="g45">
</g>
<g
   id="g47">
</g>
</svg>
