<?xml version="1.0" encoding="iso-8859-1"?>
<!-- Generator: Adobe Illustrator 19.0.0, SVG Export Plug-In . SVG Version: 6.00 Build 0)  -->
<svg version="1.1" id="Layer_1" xmlns="http://www.w3.org/2000/svg" xmlns:xlink="http://www.w3.org/1999/xlink" x="0px" y="0px"
	 viewBox="0 0 512 512" style="enable-background:new 0 0 512 512;" xml:space="preserve">
<g>
	<g>
		<g>
			<path d="M224,160c5.888,0,10.667-4.779,10.667-10.667V128c0-64.704-52.629-117.333-117.333-117.333S0,63.296,0,128v362.667
				c0,5.888,4.779,10.667,10.667,10.667s10.667-4.779,10.667-10.667V262.272L205.419,160H224z M21.333,237.867V160h140.181
				L21.333,237.867z"/>
			<path d="M501.333,245.333c-5.888,0-10.667,4.779-10.667,10.667v-21.333c0-29.397-23.936-53.333-53.333-53.333H266.667
				c-29.397,0-53.333,23.936-53.333,53.333V256c0-5.888-4.779-10.667-10.667-10.667S192,250.112,192,256v85.333
				c0,5.888,4.779,10.667,10.667,10.667s10.667-4.779,10.667-10.667v128c0,5.888,4.779,10.667,10.667,10.667h10.667
				c0,11.755,9.579,21.333,21.333,21.333h21.333c11.755,0,21.333-9.579,21.333-21.333h106.667c0,11.755,9.579,21.333,21.333,21.333
				H448c11.755,0,21.333-9.579,21.333-21.333H480c5.888,0,10.667-4.779,10.667-10.667v-128c0,5.888,4.779,10.667,10.667,10.667
				c5.888,0,10.667-4.779,10.667-10.667V256C512,250.112,507.221,245.333,501.333,245.333z M288,224h128
				c5.888,0,10.667,4.779,10.667,10.667s-4.779,10.667-10.667,10.667H288c-5.888,0-10.667-4.779-10.667-10.667S282.112,224,288,224z
				 M448,405.333c0,5.888-4.779,10.667-10.667,10.667H266.667c-5.888,0-10.667-4.779-10.667-10.667v-128
				c0-5.888,4.779-10.667,10.667-10.667h170.667c5.888,0,10.667,4.779,10.667,10.667V405.333z"/>
			<path d="M117.333,437.333H74.667c-17.643,0-32,14.357-32,32v21.333c0,5.888,4.779,10.667,10.667,10.667S64,496.555,64,490.667
				V480h64v10.667c0,5.888,4.779,10.667,10.667,10.667s10.667-4.779,10.667-10.667v-21.333
				C149.333,451.691,134.976,437.333,117.333,437.333z"/>
		</g>
	</g>
</g>
<g>
</g>
<g>
</g>
<g>
</g>
<g>
</g>
<g>
</g>
<g>
</g>
<g>
</g>
<g>
</g>
<g>
</g>
<g>
</g>
<g>
</g>
<g>
</g>
<g>
</g>
<g>
</g>
<g>
</g>
</svg>
