<?xml version='1.0' encoding='iso-8859-1'?>
<!DOCTYPE svg PUBLIC '-//W3C//DTD SVG 1.1//EN' 'http://www.w3.org/Graphics/SVG/1.1/DTD/svg11.dtd'>
<svg title="Coat Hanger SVG Vector" version="1.1" xmlns="http://www.w3.org/2000/svg" viewBox="0 0 315 315" xmlns:xlink="http://www.w3.org/1999/xlink" enable-background="new 0 0 315 315">
  <path d="m214.553,138.871c-3.193-2.186-7.548-1.368-9.73,1.822-10.092,14.746-24.513,24.001-40.322,26.119v-50.012c20.48-2.143 39.102-13.647 51.875-32.309 2.184-3.19 1.367-7.547-1.822-9.731-3.193-2.185-7.548-1.367-9.73,1.822-10.092,14.746-24.513,24.001-40.322,26.12v-55.001c10.033-3.016 17.365-12.334 17.365-23.336-0.002-13.434-10.932-24.365-24.367-24.365s-24.365,10.931-24.365,24.365c0,11.002 7.332,20.32 17.365,23.336v22.945c-15.81-2.118-30.23-11.373-40.322-26.118-2.183-3.189-6.54-4.004-9.73-1.822-3.19,2.183-4.006,6.54-1.822,9.73 12.772,18.661 31.395,30.165 51.875,32.308v50.014c-15.81-2.119-30.23-11.374-40.322-26.119-2.183-3.191-6.539-4.006-9.729-1.823-3.19,2.184-4.007,6.539-1.823,9.729 12.772,18.662 31.395,30.167 51.875,32.31v152.145h-41.788c-3.866,0-7,3.134-7,7s3.134,7 7,7h97.576c3.866,0 7-3.134 7-7s-3.134-7-7-7h-41.79v-120.09c20.48-2.143 39.102-13.646 51.875-32.309 2.184-3.19 1.367-7.546-1.822-9.73zm-67.418-114.506c0-5.716 4.649-10.365 10.365-10.365s10.365,4.649 10.365,10.365c0,5.716-4.649,10.365-10.365,10.365s-10.365-4.649-10.365-10.365z"/>
</svg>
