<?xml version="1.0" encoding="UTF-8" standalone="no"?>
<!-- Generator: Adobe Illustrator 19.0.0, SVG Export Plug-In . SVG Version: 6.00 Build 0)  -->

<svg
   version="1.1"
   id="Layer_1"
   x="0px"
   y="0px"
   viewBox="0 0 508 508"
   style="enable-background:new 0 0 508 508;"
   xml:space="preserve"
   sodipodi:docname="museum2.svg"
   inkscape:version="1.1.2 (0a00cf5339, 2022-02-04)"
   xmlns:inkscape="http://www.inkscape.org/namespaces/inkscape"
   xmlns:sodipodi="http://sodipodi.sourceforge.net/DTD/sodipodi-0.dtd"
   xmlns="http://www.w3.org/2000/svg"
   xmlns:svg="http://www.w3.org/2000/svg"><defs
   id="defs87" /><sodipodi:namedview
   id="namedview85"
   pagecolor="#ffffff"
   bordercolor="#666666"
   borderopacity="1.0"
   inkscape:pageshadow="2"
   inkscape:pageopacity="0.0"
   inkscape:pagecheckerboard="0"
   showgrid="false"
   inkscape:zoom="1.6850394"
   inkscape:cx="148.66121"
   inkscape:cy="253.40654"
   inkscape:window-width="1900"
   inkscape:window-height="1012"
   inkscape:window-x="10"
   inkscape:window-y="34"
   inkscape:window-maximized="1"
   inkscape:current-layer="Layer_1" />
<circle
   style="fill:#3a8da5;fill-opacity:1;stroke:#ffffff;stroke-opacity:1"
   cx="254"
   cy="254"
   id="circle2"
   r="254" />
<path
   style="fill:#3a8da5;fill-opacity:1"
   d="M48.4,402.8C94.4,466.4,169.6,508,254,508c84.8,0,159.6-41.6,205.6-105.2H48.4z"
   id="path4" />
<rect
   x="132"
   y="154.4"
   style="fill:#3a8da5;fill-opacity:1"
   width="244"
   height="227.6"
   id="rect6" />
<path
   style="fill:#E6E9EE;"
   d="M410,164.4H94.4c-5.6,0-10-4.4-10-10l0,0c0-5.6,4.4-10,10-10H410c5.6,0,10,4.4,10,10l0,0  C420.4,160,415.6,164.4,410,164.4z"
   id="path8" />
<polygon
   style="fill:#FFFFFF;"
   points="252.4,52.4 97.6,144.4 406.8,144.4 "
   id="polygon10" />
<g
   id="g16"
   style="fill:#ffffff">
	<polygon
   style="fill:#ffffff"
   points="150.4,130 252.4,69.2 354,130  "
   id="polygon12" />
	<path
   style="fill:#ffffff"
   d="M360,164.4c-7.2,37.2-9.6,135.2-7.6,176.4c0,0.8,0,1.6,0,2.4h34.4c0-0.8,0-1.6,0-2.4   c2-41.2-0.8-139.2-7.6-176.4H360z"
   id="path14" />
</g>
<g
   id="g22">
	<path
   style="fill:#FFFFFF;"
   d="M350.8,164.4v6.4c0,4,2.8,6.8,6,6.8h25.6c3.6,0,6-3.2,6-6.8v-6.4H350.8z"
   id="path18" />
	<path
   style="fill:#FFFFFF;"
   d="M397.2,360.4v-7.2c0-5.6-4-10-9.2-10h-37.2c-4.8,0-9.2,4.4-9.2,10v7.2H397.2z"
   id="path20" />
</g>
<path
   style="fill:#E6E9EE;"
   d="M282,164.4c-7.2,37.2-9.6,135.2-7.6,176.4c0,0.8,0,1.6,0,2.4h34.4c0-0.8,0-1.6,0-2.4  c2-41.2-0.8-139.2-7.6-176.4H282z"
   id="path24" />
<g
   id="g30">
	<path
   style="fill:#FFFFFF;"
   d="M272.4,164.4v6.4c0,4,2.8,6.8,6,6.8H304c3.6,0,6-3.2,6-6.8v-6.4H272.4z"
   id="path26" />
	<path
   style="fill:#FFFFFF;"
   d="M319.2,360.4v-7.2c0-5.6-4-10-9.2-10h-37.2c-4.8,0-9.2,4.4-9.2,10v7.2H319.2z"
   id="path28" />
</g>
<path
   style="fill:#E6E9EE;"
   d="M203.6,164.4c-7.2,37.2-9.6,135.2-7.6,176.4c0,0.8,0,1.6,0,2.4h34.4c0-0.8,0-1.6,0-2.4  c2-41.2-0.8-139.2-7.6-176.4H203.6z"
   id="path32" />
<g
   id="g38">
	<path
   style="fill:#FFFFFF;"
   d="M194.4,164.4v6.4c0,4,2.8,6.8,6,6.8H226c3.6,0,6-3.2,6-6.8v-6.4H194.4z"
   id="path34" />
	<path
   style="fill:#FFFFFF;"
   d="M240.8,360.4v-7.2c0-5.6-4-10-9.2-10h-37.2c-4.8,0-9.2,4.4-9.2,10v7.2H240.8z"
   id="path36" />
</g>
<path
   style="fill:#E6E9EE;"
   d="M125.6,164.4c-7.2,37.2-9.6,135.2-7.6,176.4c0,0.8,0,1.6,0,2.4h34.4c0-0.8,0-1.6,0-2.4  c2-41.2-0.8-139.2-7.6-176.4H125.6z"
   id="path40" />
<g
   id="g46">
	<path
   style="fill:#FFFFFF;"
   d="M116.4,164.4v6.4c0,4,2.8,6.8,6,6.8H148c3.6,0,6-3.2,6-6.8v-6.4H116.4z"
   id="path42" />
	<path
   style="fill:#FFFFFF;"
   d="M162.8,360.4v-7.2c0-5.6-4-10-9.2-10h-37.2c-4.8,0-9.2,4.4-9.2,10v7.2H162.8z"
   id="path44" />
</g>
<rect
   x="84.4"
   y="360.4"
   style="fill:#E6E9EE;"
   width="339.2"
   height="42.4"
   id="rect48" />
<rect
   x="166.8"
   y="381.6"
   style="fill:#3a8da5;fill-opacity:1"
   width="174.4"
   height="21.6"
   id="rect50" />
<rect
   x="166.8"
   y="360.4"
   style="fill:#CED5E0;"
   width="174.4"
   height="21.6"
   id="rect52" />
<g
   id="g54">
</g>
<g
   id="g56">
</g>
<g
   id="g58">
</g>
<g
   id="g60">
</g>
<g
   id="g62">
</g>
<g
   id="g64">
</g>
<g
   id="g66">
</g>
<g
   id="g68">
</g>
<g
   id="g70">
</g>
<g
   id="g72">
</g>
<g
   id="g74">
</g>
<g
   id="g76">
</g>
<g
   id="g78">
</g>
<g
   id="g80">
</g>
<g
   id="g82">
</g>
</svg>
