<?xml version="1.0" encoding="UTF-8" standalone="no"?>
<!-- Generator: Adobe Illustrator 19.0.0, SVG Export Plug-In . SVG Version: 6.00 Build 0)  -->

<svg
   version="1.1"
   id="Layer_1"
   x="0px"
   y="0px"
   viewBox="0 0 512 512"
   style="enable-background:new 0 0 512 512;"
   xml:space="preserve"
   sodipodi:docname="spot.svg"
   inkscape:version="1.1.2 (0a00cf5339, 2022-02-04)"
   xmlns:inkscape="http://www.inkscape.org/namespaces/inkscape"
   xmlns:sodipodi="http://sodipodi.sourceforge.net/DTD/sodipodi-0.dtd"
   xmlns="http://www.w3.org/2000/svg"
   xmlns:svg="http://www.w3.org/2000/svg"><defs
   id="defs41" /><sodipodi:namedview
   id="namedview39"
   pagecolor="#ffffff"
   bordercolor="#666666"
   borderopacity="1.0"
   inkscape:pageshadow="2"
   inkscape:pageopacity="0.0"
   inkscape:pagecheckerboard="0"
   showgrid="false"
   inkscape:zoom="1.671875"
   inkscape:cx="256.29907"
   inkscape:cy="256"
   inkscape:window-width="1920"
   inkscape:window-height="1032"
   inkscape:window-x="0"
   inkscape:window-y="24"
   inkscape:window-maximized="1"
   inkscape:current-layer="Layer_1" />
<path
   style="fill:#045170;stroke:#ffffff;stroke-opacity:1;fill-opacity:1"
   d="M45.807,512h420.387c25.298,0,45.806-20.508,45.806-45.806V45.806  C512.001,20.508,491.492,0,466.195,0H45.807C20.508,0,0.001,20.508,0.001,45.806v420.387C0.001,491.491,20.508,512,45.807,512z"
   id="path2" />
<path
   style="fill:#efefef;fill-opacity:1"
   d="M466.195,479.961H45.807c-7.591,0-13.767-6.176-13.767-13.767V45.806  c0-7.591,6.176-13.767,13.767-13.767h420.387c7.591,0,13.767,6.176,13.767,13.767v420.387  C479.961,473.785,473.785,479.961,466.195,479.961z M47.419,464.582h417.163V47.418H47.419V464.582z"
   id="path4" />
<path
   style="fill:#ffffff;fill-opacity:1"
   d="M281.217,96.425H178.388v328.708h56.971V315.755h45.859c60.469,0,109.665-49.195,109.665-109.664  S341.686,96.425,281.217,96.425z M281.217,258.784h-45.859V153.396h45.859c29.055,0,52.693,23.639,52.693,52.695  S310.272,258.784,281.217,258.784z"
   id="path6" />
<g
   id="g8">
</g>
<g
   id="g10">
</g>
<g
   id="g12">
</g>
<g
   id="g14">
</g>
<g
   id="g16">
</g>
<g
   id="g18">
</g>
<g
   id="g20">
</g>
<g
   id="g22">
</g>
<g
   id="g24">
</g>
<g
   id="g26">
</g>
<g
   id="g28">
</g>
<g
   id="g30">
</g>
<g
   id="g32">
</g>
<g
   id="g34">
</g>
<g
   id="g36">
</g>
</svg>
