<?xml version="1.0" encoding="iso-8859-1"?>
<!-- Generator: Adobe Illustrator 19.0.0, SVG Export Plug-In . SVG Version: 6.00 Build 0)  -->
<svg version="1.1" id="Layer_1" xmlns="http://www.w3.org/2000/svg" xmlns:xlink="http://www.w3.org/1999/xlink" x="0px" y="0px"
	 viewBox="0 0 490 490" style="enable-background:new 0 0 490 490;" xml:space="preserve">
<g>
	<g>
		<path d="M484.997,402.4l-74-88.6c-4.2-4.2-9.4-7.3-15.6-7.3h-31.3v-50c0-19.8-15.6-35.4-35.4-35.4h-65.7
			c-11.5,0-20.9,9.4-20.9,20.9s9.4,20.9,20.9,20.9h60.5v43.8h-137.7V143.9c0-11.5-9.4-20.9-20.9-20.9s-20.9,9.4-20.9,20.9V166
			c-80.8,10.2-143.8,78.7-143.8,161.4c0,89.7,74,162.6,164.7,162.6c84.8,0,154.5-62.4,164.5-141.8h56.6l67.8,81.3
			c10.1,12.1,25,6.3,28.1,2.1C491.297,424.3,492.297,410.8,484.997,402.4z M164.897,450.4c-68.8,0-124.1-54.2-124.1-122
			c0-60.8,44.4-110.6,103.2-120.3v119.2c0,11.5,9.4,20.9,20.9,20.9h122.5C277.797,406.4,226.897,450.4,164.897,450.4z"/>
		<path d="M164.897,112.6c31.3,0,57.3-25,57.3-56.3s-26-56.3-57.3-56.3c-32.3,0-57.3,25-57.3,56.3S133.697,112.6,164.897,112.6z
			 M164.897,40.7c9.4,0,16.7,7.3,15.6,15.6c0,8.3-7.3,15.6-15.6,15.6s-15.6-7.3-15.6-15.6S156.597,40.7,164.897,40.7z"/>
	</g>
</g>
<g>
</g>
<g>
</g>
<g>
</g>
<g>
</g>
<g>
</g>
<g>
</g>
<g>
</g>
<g>
</g>
<g>
</g>
<g>
</g>
<g>
</g>
<g>
</g>
<g>
</g>
<g>
</g>
<g>
</g>
</svg>
